<?xml version="1.0" standalone="no"?>
<!DOCTYPE svg PUBLIC "-//W3C//DTD SVG 20010904//EN"
 "http://www.w3.org/TR/2001/REC-SVG-20010904/DTD/svg10.dtd">
<svg version="1.0" xmlns="http://www.w3.org/2000/svg"
 width="300.000000pt" height="300.000000pt" viewBox="0 0 300.000000 300.000000"
 preserveAspectRatio="xMidYMid meet">
<metadata>
Created by potrace 1.11, written by Peter Selinger 2001-2013
</metadata>
<g transform="translate(0.000000,300.000000) scale(0.100000,-0.100000)"
fill="#000000" stroke="none">
<path d="M0 1500 l0 -1500 1500 0 1500 0 0 1500 0 1500 -1500 0 -1500 0 0
-1500z m2548 8 l2 -608 -125 0 -125 0 0 603 c0 332 3 607 7 611 4 3 59 5 122
4 l116 -3 3 -607z m-1495 262 c125 -31 121 -25 82 -127 -18 -48 -37 -89 -43
-91 -5 -1 -37 6 -71 18 -36 12 -86 20 -124 20 -81 0 -122 -25 -157 -95 -22
-44 -25 -63 -25 -160 0 -95 3 -116 23 -157 38 -76 70 -93 177 -93 90 1 102 4
218 63 4 2 7 -42 7 -97 0 -93 -2 -102 -23 -115 -58 -39 -111 -50 -237 -50
-107 0 -133 3 -185 23 -83 33 -164 115 -194 196 -72 193 -39 438 75 565 96
107 292 148 477 100z m812 -1 c82 -25 143 -77 176 -152 23 -51 24 -61 27 -384
l4 -333 -90 0 -89 0 -22 59 -22 60 -43 -44 c-56 -56 -89 -72 -173 -86 -149
-26 -264 19 -318 125 -26 52 -30 70 -30 140 0 65 5 91 23 128 47 95 161 146
342 154 169 8 170 8 170 54 0 21 -5 50 -11 64 -34 74 -174 75 -351 1 -13 -5
-24 8 -52 71 -20 42 -36 80 -36 84 0 11 91 48 157 64 92 23 258 20 338 -5z"/>
<path d="M1637 1286 c-68 -18 -99 -52 -104 -113 -5 -42 -2 -54 20 -79 23 -27
30 -29 94 -29 119 0 173 54 173 174 l0 61 -67 -1 c-38 0 -90 -6 -116 -13z"/>
</g>
</svg>
